<?xml version="1.0" encoding="UTF-8"?>
<svg version="1.1" xmlns="http://www.w3.org/2000/svg" width="299" height="168">
<path d="M0 0 C98.67 0 197.34 0 299 0 C299 55.44 299 110.88 299 168 C200.33 168 101.66 168 0 168 C0 112.56 0 57.12 0 0 Z " fill="#FEFEFE" transform="translate(0,0)"/>
<path d="M0 0 C2.70556641 -0.34057617 2.70556641 -0.34057617 6.1015625 -0.29296875 C7.31328125 -0.28330078 8.525 -0.27363281 9.7734375 -0.26367188 C11.04445312 -0.23853516 12.31546875 -0.21339844 13.625 -0.1875 C14.90375 -0.17396484 16.1825 -0.16042969 17.5 -0.14648438 C20.66708282 -0.11103196 23.83333541 -0.06161441 27 0 C23.59637436 4.65372944 20.13716469 9.10083434 16.1875 13.3125 C12.86417913 16.91855115 9.65426659 20.56847017 6.5625 24.375 C5.81097656 25.26574219 5.05945313 26.15648438 4.28515625 27.07421875 C2.5870409 29.24838695 1.24563973 31.22629407 -0.12890625 33.58203125 C-2.5795355 37.46254125 -4.84238713 40.84405878 -9 43 C-17.21083269 44.58725463 -25.72923129 43.8046977 -34 43 C-34 42.34 -34 41.68 -34 41 C-33.34 41 -32.68 41 -32 41 C-31.77570313 40.46632812 -31.55140625 39.93265625 -31.3203125 39.3828125 C-29.56097685 36.20768012 -27.24652655 33.5991699 -24.875 30.875 C-23.87395074 29.70923352 -22.87395825 28.54255879 -21.875 27.375 C-21.38386719 26.80136719 -20.89273438 26.22773437 -20.38671875 25.63671875 C-17.84985731 22.64250765 -15.42088206 19.56411971 -12.984375 16.48828125 C-9.99424033 12.73884072 -6.93666655 9.045267 -3.8828125 5.34765625 C-1.90225342 2.94854152 -1.90225342 2.94854152 0 0 Z " fill="#F01D30" transform="translate(193,44)"/>
<path d="M0 0 C1.25619141 0.04060547 2.51238281 0.08121094 3.80664062 0.12304688 C6.89592394 0.22876379 9.97719098 0.37636967 13.0625 0.5625 C9.65887436 5.21622944 6.19966469 9.66333434 2.25 13.875 C-1.9212952 18.39598462 -5.83529818 23.06041429 -9.6953125 27.84765625 C-12.70963931 31.49740735 -15.88464062 34.98655401 -19.08984375 38.46875 C-21.07695339 40.62583263 -21.07695339 40.62583263 -22.9375 43.5625 C-25.45947266 43.90307617 -25.45947266 43.90307617 -28.6015625 43.85546875 C-29.72304687 43.84580078 -30.84453125 43.83613281 -32 43.82617188 C-33.175625 43.80103516 -34.35125 43.77589844 -35.5625 43.75 C-37.33753906 43.72969727 -37.33753906 43.72969727 -39.1484375 43.70898438 C-42.07857539 43.67353916 -45.00781459 43.62412769 -47.9375 43.5625 C-44.72784936 38.51423467 -41.08091232 33.96405466 -37.25 29.375 C-35.9946952 27.86075705 -34.73948685 26.34643414 -33.484375 24.83203125 C-32.87658203 24.10064941 -32.26878906 23.36926758 -31.64257812 22.61572266 C-29.4193842 19.93859481 -27.20711841 17.25290123 -25 14.5625 C-24.37222656 13.799375 -23.74445313 13.03625 -23.09765625 12.25 C-20.94789546 9.71700159 -20.94789546 9.71700159 -19.6184082 7.26977539 C-14.4795321 -0.89546147 -9.10942568 -0.55888978 0 0 Z " fill="#224798" transform="translate(128.9375,43.4375)"/>
<path d="M0 0 C4.10455765 -0.08071599 8.20753836 -0.14036813 12.3125 -0.1875 C13.47974609 -0.21263672 14.64699219 -0.23777344 15.84960938 -0.26367188 C16.96787109 -0.27333984 18.08613281 -0.28300781 19.23828125 -0.29296875 C20.26993408 -0.3086792 21.30158691 -0.32438965 22.36450195 -0.34057617 C25 0 25 0 26.84057617 1.33081055 C28.62591857 3.90111714 28.31685193 5.95822145 28 9 C27.01 10.485 27.01 10.485 26 12 C25.34 12 24.68 12 24 12 C25.65 14.64 27.3 17.28 29 20 C31.64 13.4 34.28 6.8 37 0 C41.95 0 46.9 0 52 0 C60 17.42857143 60 17.42857143 60 22 C56.7 22 53.4 22 50 22 C49.505 20.515 49.505 20.515 49 19 C46.03 19 43.06 19 40 19 C40 19.99 40 20.98 40 22 C36.06288563 22.14492719 32.12645375 22.23394537 28.1875 22.3125 C27.06794922 22.35439453 25.94839844 22.39628906 24.79492188 22.43945312 C23.18520508 22.46362305 23.18520508 22.46362305 21.54296875 22.48828125 C20.55321045 22.51446533 19.56345215 22.54064941 18.54370117 22.56762695 C16 22 16 22 14.15356445 19.46948242 C13.77288818 18.65455322 13.39221191 17.83962402 13 17 C12.67 18.65 12.34 20.3 12 22 C8.04 22 4.08 22 0 22 C0 14.74 0 7.48 0 0 Z " fill="#224898" transform="translate(136,101)"/>
<path d="M0 0 C2.62697064 -0.22137393 5.00893964 -0.28162025 7.625 -0.1875 C8.33140625 -0.17396484 9.0378125 -0.16042969 9.765625 -0.14648438 C11.51074128 -0.1111104 13.25546608 -0.05730221 15 0 C9.92497262 7.04864914 4.30323282 13.56280446 -1.37695312 20.12255859 C-4.05344457 23.21856028 -6.71349011 26.32862099 -9.375 29.4375 C-12.18856654 32.72047134 -12.18856654 32.72047134 -13.60009766 34.3371582 C-14.58699792 35.50942498 -15.53138478 36.71813372 -16.44287109 37.94995117 C-20.18241879 42.83704247 -20.18241879 42.83704247 -24.4296875 43.68359375 C-25.56664063 43.60238281 -26.70359375 43.52117187 -27.875 43.4375 C-29.02742188 43.37433594 -30.17984375 43.31117187 -31.3671875 43.24609375 C-32.23601562 43.16488281 -33.10484375 43.08367187 -34 43 C-34 42.34 -34 41.68 -34 41 C-33.34 41 -32.68 41 -32 41 C-31.59056152 40.1186438 -31.59056152 40.1186438 -31.17285156 39.21948242 C-30.02889681 37.05468379 -28.80035339 35.3633616 -27.234375 33.48828125 C-26.40341309 32.48692139 -26.40341309 32.48692139 -25.55566406 31.46533203 C-24.95979492 30.75489746 -24.36392578 30.04446289 -23.75 29.3125 C-22.48952118 27.79562457 -21.22910647 26.27869585 -19.96875 24.76171875 C-18.99228516 23.59068604 -18.99228516 23.59068604 -17.99609375 22.39599609 C-14.73548641 18.48215064 -11.49207029 14.55420198 -8.25 10.625 C-7.65413086 9.90610596 -7.05826172 9.18721191 -6.44433594 8.4465332 C-5.61337402 7.44046021 -5.61337402 7.44046021 -4.765625 6.4140625 C-4.27868164 5.8257666 -3.79173828 5.2374707 -3.29003906 4.63134766 C-2.11544369 3.14598689 -1.0504169 1.57562535 0 0 Z " fill="#224898" transform="translate(145,44)"/>
<path d="M0 0 C4.08403601 -0.10778981 8.1652368 -0.18722647 12.25 -0.25 C13.40886719 -0.28351563 14.56773438 -0.31703125 15.76171875 -0.3515625 C16.87675781 -0.36445312 17.99179688 -0.37734375 19.140625 -0.390625 C20.16704102 -0.41157227 21.19345703 -0.43251953 22.25097656 -0.45410156 C25.71744519 0.11851226 26.87001374 1.26144624 29 4 C29.4375 6.5625 29.4375 6.5625 29 9 C27.625 10.8125 27.625 10.8125 26 12 C25.34 12 24.68 12 24 12 C25.98 15.3 27.96 18.6 30 22 C27.91846065 22.13536022 25.83438794 22.23215465 23.75 22.3125 C22.58984375 22.37050781 21.4296875 22.42851563 20.234375 22.48828125 C17 22 17 22 14.578125 19.48046875 C14.05734375 18.66191406 13.5365625 17.84335938 13 17 C12.67 18.65 12.34 20.3 12 22 C8.04 22 4.08 22 0 22 C0 14.74 0 7.48 0 0 Z " fill="#234898" transform="translate(64,101)"/>
<path d="M0 0 C11 0 11 0 14.6875 3.5 C15.49272878 4.64319804 16.27653486 5.80338255 17 7 C17.33 4.69 17.66 2.38 18 0 C21.3 0 24.6 0 28 0 C28 7.26 28 14.52 28 22 C18 22 18 22 15.4921875 20.03125 C14.69167969 18.77828125 14.69167969 18.77828125 13.875 17.5 C13.31554687 16.6646875 12.75609375 15.829375 12.1796875 14.96875 C11.79039062 14.3190625 11.40109375 13.669375 11 13 C10.67 15.97 10.34 18.94 10 22 C6.7 22 3.4 22 0 22 C0 14.74 0 7.48 0 0 Z " fill="#234A99" transform="translate(198,101)"/>
<path d="M0 0 C4.95 0 9.9 0 15 0 C15.94881472 2.37203681 16.89726697 4.74421934 17.84375 7.1171875 C18.6073908 9.02112977 19.3780988 10.9222545 20.15625 12.8203125 C20.5171875 13.70460938 20.878125 14.58890625 21.25 15.5 C21.75273438 16.72203125 21.75273438 16.72203125 22.265625 17.96875 C23 20 23 20 23 22 C19.37 22 15.74 22 12 22 C12 21.01 12 20.02 12 19 C9.03 19 6.06 19 3 19 C3 19.99 3 20.98 3 22 C-0.63 22 -4.26 22 -8 22 C-5.86966884 14.37565692 -3.12942535 7.27379946 0 0 Z " fill="#214898" transform="translate(26,101)"/>
<path d="M0 0 C7.92 0 15.84 0 24 0 C24 1.98 24 3.96 24 6 C19.38 6 14.76 6 10 6 C10 6.99 10 7.98 10 9 C14.62 9 19.24 9 24 9 C24 10.65 24 12.3 24 14 C19.38 14 14.76 14 10 14 C10 14.99 10 15.98 10 17 C14.62 17 19.24 17 24 17 C24 18.65 24 20.3 24 22 C16.08 22 8.16 22 0 22 C0 14.74 0 7.48 0 0 Z " fill="#174195" transform="translate(257,101)"/>
<path d="M0 0 C7.92 0 15.84 0 24 0 C24 2.64 24 5.28 24 8 C19.71 8 15.42 8 11 8 C11 8.66 11 9.32 11 10 C15.29 10 19.58 10 24 10 C24 12.31 24 14.62 24 17 C19.71 17 15.42 17 11 17 C11 18.65 11 20.3 11 22 C7.37 22 3.74 22 0 22 C0 14.74 0 7.48 0 0 Z " fill="#234999" transform="translate(109,101)"/>
<path d="M0 0 C1.8125 1.875 1.8125 1.875 1.8125 7.875 C-4.6225 8.37 -4.6225 8.37 -11.1875 8.875 C-11.5175 10.195 -11.8475 11.515 -12.1875 12.875 C-11.07623341 14.21401792 -11.07623341 14.21401792 -8.24609375 13.97265625 C-7.05113281 13.96105469 -5.85617188 13.94945313 -4.625 13.9375 C-3.42746094 13.92847656 -2.22992188 13.91945313 -0.99609375 13.91015625 C0.39416016 13.89275391 0.39416016 13.89275391 1.8125 13.875 C1.8125 15.855 1.8125 17.835 1.8125 19.875 C-3.61515336 22.64656768 -8.08908278 23.70811711 -14.1875 22.875 C-17.85083733 21.45036882 -20.74071882 19.97192589 -23.1875 16.875 C-23.87825165 13.1564536 -23.77738788 9.60549462 -23.1875 5.875 C-17.50977546 -1.85301395 -8.80344357 -3.10709773 0 0 Z " fill="#224898" transform="translate(252.1875,101.125)"/>
<path d="M0 0 C2.3125 0.2734375 2.3125 0.2734375 4 0.625 C-1.29459066 8.03742692 -7.28568037 14.7952158 -13.27441406 21.64501953 C-16.03361382 24.81099435 -18.76801809 27.99803795 -21.5 31.1875 C-21.97969238 31.74646973 -22.45938477 32.30543945 -22.95361328 32.88134766 C-23.64173096 33.68451416 -23.64173096 33.68451416 -24.34375 34.50390625 C-24.7869458 35.01759766 -25.2301416 35.53128906 -25.68676758 36.06054688 C-26.58894541 37.13531087 -27.46537143 38.23205865 -28.3190918 39.34570312 C-29.47237599 40.83234315 -30.7309479 42.23587446 -32 43.625 C-35.8125 44 -35.8125 44 -39 43.625 C-36.25712244 39.34840205 -33.27365541 35.45993013 -29.9375 31.625 C-25.95018343 26.97909129 -22.08295651 22.26099068 -18.3125 17.4375 C-17.85302979 16.85661621 -17.39355957 16.27573242 -16.92016602 15.67724609 C-14.81206189 13.00176447 -12.7894478 10.32120872 -10.84765625 7.51953125 C-5.51619358 0.03436881 -5.51619358 0.03436881 0 0 Z " fill="#224898" transform="translate(169,43.375)"/>
<path d="M0 0 C3.63 0 7.26 0 11 0 C11 7.26 11 14.52 11 22 C7.37 22 3.74 22 0 22 C0 14.74 0 7.48 0 0 Z " fill="#2E529D" transform="translate(51,101)"/>
<path d="M0 0 C0.69867188 0.13664062 1.39734375 0.27328125 2.1171875 0.4140625 C-1.76701896 5.86718373 -6.01208201 10.83853987 -10.52734375 15.77734375 C-12.89655938 18.4294508 -15.14764891 21.14838888 -17.3828125 23.9140625 C-21.0865209 28.494965 -24.9512102 32.88631592 -28.9375 37.22265625 C-30.70809464 39.21724178 -32.31909491 41.25534545 -33.8828125 43.4140625 C-35.2028125 43.0840625 -36.5228125 42.7540625 -37.8828125 42.4140625 C-36.88314453 41.25003906 -36.88314453 41.25003906 -35.86328125 40.0625 C-30.9509432 34.31432592 -26.13811604 28.517278 -21.5078125 22.5390625 C-17.42016196 17.30675096 -13.27084222 12.12977099 -9.0078125 7.0390625 C-8.47236816 6.37793457 -7.93692383 5.71680664 -7.38525391 5.03564453 C-3.53818857 0.50819511 -3.53818857 0.50819511 0 0 Z " fill="#214999" transform="translate(182.8828125,43.5859375)"/>
<path d="M0 0 C0.33 0 0.66 0 1 0 C1 7.26 1 14.52 1 22 C0.01 21.34 -0.98 20.68 -2 20 C-2.1875 16.875 -2.1875 16.875 -2 14 C-2.99 14.495 -2.99 14.495 -4 15 C-5.83037287 15.12145993 -7.66564133 15.17543185 -9.5 15.1875 C-10.4796875 15.20167969 -11.459375 15.21585938 -12.46875 15.23046875 C-15 15 -15 15 -17 13 C-16.46428571 9.46428571 -16.46428571 9.46428571 -15 8 C-12.81360547 7.92741054 -10.62499611 7.91626217 -8.4375 7.9375 C-6.64119141 7.95103516 -6.64119141 7.95103516 -4.80859375 7.96484375 C-3.88175781 7.97644531 -2.95492187 7.98804687 -2 8 C-2.04125 7.05125 -2.0825 6.1025 -2.125 5.125 C-2 2 -2 2 0 0 Z " fill="#EFF0F6" transform="translate(256,101)"/>
<path d="M0 0 C7.92 0 15.84 0 24 0 C24 0.33 24 0.66 24 1 C16.74 1 9.48 1 2 1 C2 7.27 2 13.54 2 20 C4.97 20 7.94 20 11 20 C11.33 18.68 11.66 17.36 12 16 C12 17.98 12 19.96 12 22 C8.04 22 4.08 22 0 22 C0 14.74 0 7.48 0 0 Z " fill="#375DA3" transform="translate(64,101)"/>
<path d="M0 0 C2.31 0 4.62 0 7 0 C7 1.32 7 2.64 7 4 C4.69 4 2.38 4 0 4 C0 2.68 0 1.36 0 0 Z " fill="#ECEFF5" transform="translate(76,107)"/>
<path d="M0 0 C1.98 0 3.96 0 6 0 C6.33 1.32 6.66 2.64 7 4 C4.69 4 2.38 4 0 4 C0 2.68 0 1.36 0 0 Z " fill="#F2F4F8" transform="translate(148,107)"/>
<path d="M0 0 C0.66 0.33 1.32 0.66 2 1 C2.625 3.5625 2.625 3.5625 3 6 C1.35 6 -0.3 6 -2 6 C-1.125 1.125 -1.125 1.125 0 0 Z " fill="#DFE3EE" transform="translate(33,108)"/>
<path d="M0 0 C1.5 1.3125 1.5 1.3125 3 3 C3 3.99 3 4.98 3 6 C1.35 6 -0.3 6 -2 6 C-1.34 4.02 -0.68 2.04 0 0 Z " fill="#E4E8F1" transform="translate(180,108)"/>
<path d="M0 0 C0.99 0.33 1.98 0.66 3 1 C2.01 2.32 1.02 3.64 0 5 C-1.32 4.67 -2.64 4.34 -4 4 C-2.68 2.68 -1.36 1.36 0 0 Z " fill="#3056A0" transform="translate(149,82)"/>
</svg>
