<?xml version="1.0" encoding="UTF-8"?>
<svg version="1.1" xmlns="http://www.w3.org/2000/svg" width="259" height="194">
<path d="M0 0 C85.47 0 170.94 0 259 0 C259 64.02 259 128.04 259 194 C173.53 194 88.06 194 0 194 C0 129.98 0 65.96 0 0 Z " fill="#FEFEFE" transform="translate(0,0)"/>
<path d="M0 0 C5.69716187 4.383587 11.73174236 9.46348472 15 16 C15.67901285 26.0516165 15.4750616 34.7502075 11 44 C16.17717559 38.82282441 16.67893179 28.7552495 18 22 C20.89012238 24.89012238 21.99445082 28.07117571 23 32 C22.82274003 41.57203816 17.99352668 49.84772483 12 57 C16.77257361 53.72737809 19.14516739 49.87825784 22 45 C22.66 44.01 23.32 43.02 24 42 C24.82541985 51.0337617 23.64015472 55.93302042 18 63 C18 63.33 18 63.66 18 64 C19.98 62.515 19.98 62.515 22 61 C20.22611828 74.36324233 11.61204967 85.11603403 1.1953125 93.16796875 C-13.37475125 102.84694878 -29.69051724 105.36462892 -46.84765625 102.31640625 C-62.17238722 97.91442751 -75.03358598 87.82531111 -83 74 C-87.36969001 65.10907003 -87.36969001 65.10907003 -86 61 C-84.68 61.99 -83.36 62.98 -82 64 C-82.42152344 63.44570312 -82.84304687 62.89140625 -83.27734375 62.3203125 C-83.82519531 61.59585938 -84.37304688 60.87140625 -84.9375 60.125 C-85.48277344 59.40570313 -86.02804688 58.68640625 -86.58984375 57.9453125 C-89.14039989 54.42681677 -89.10848051 52.19716762 -89.0625 47.875 C-89.05347656 46.77929688 -89.04445313 45.68359375 -89.03515625 44.5546875 C-89.02355469 43.71164063 -89.01195313 42.86859375 -89 42 C-88.34 42.99 -87.68 43.98 -87 45 C-85.67580285 46.88146345 -84.34147314 48.75581499 -83 50.625 C-82.29875 51.60726562 -81.5975 52.58953125 -80.875 53.6015625 C-79.22429661 56.06669364 -79.22429661 56.06669364 -77 57 C-77.56267578 56.34257812 -77.56267578 56.34257812 -78.13671875 55.671875 C-83.20264794 49.39369575 -88.80176961 41.11426219 -88 32.6875 C-86.96457892 28.86938476 -85.70633032 25.56103718 -84 22 C-83.67 22 -83.34 22 -83 22 C-82.74605469 23.16917969 -82.49210937 24.33835938 -82.23046875 25.54296875 C-81.88327833 27.09125037 -81.53559609 28.63942175 -81.1875 30.1875 C-81.02185547 30.95642578 -80.85621094 31.72535156 -80.68554688 32.51757812 C-79.69947686 36.85256519 -78.58950227 40.29753114 -76 44 C-76.28875 43.40316406 -76.5775 42.80632812 -76.875 42.19140625 C-79.46452822 36.14018233 -80.43216613 30.70449728 -80.5 24.1875 C-80.52707031 23.11254272 -80.52707031 23.11254272 -80.5546875 22.01586914 C-80.4775674 15.11281664 -77.20635793 10.95511944 -72.625 6.125 C-52.40816453 -13.59966532 -23.45287294 -14.398458 0 0 Z " fill="#E1051C" transform="translate(162,46)"/>
<path d="M0 0 C8.42167313 6.12931087 15.24805583 13.81036888 18 24 C19.05008808 35.56317918 18.30395851 46.00196587 10.8125 55.375 C5.95247228 60.41119077 0.51093393 64.1638342 -6.625 64.625 C-11.34481823 64.34396004 -14.76412885 62.40618015 -18 59 C-20.77992152 54.53724974 -20.58701873 50.09779425 -20 45 C-17.61640378 35.94233437 -9.01318787 28.67265181 -1.375 23.875 C-0.26125 23.25625 0.8525 22.6375 2 22 C-0.0187601 17.4920891 -2.77315276 14.55922392 -7 12 C-10.08655226 11.21667045 -11.72412365 11.47163285 -15 12 C-16.05380859 12.97066406 -16.05380859 12.97066406 -17.12890625 13.9609375 C-21.19281675 16.84714333 -24.93349776 16.9007202 -29.8125 17.25 C-31.13797852 17.36601563 -31.13797852 17.36601563 -32.49023438 17.484375 C-34.65885709 17.67193156 -36.82931082 17.83810365 -39 18 C-38.31897217 18.0501123 -37.63794434 18.10022461 -36.9362793 18.15185547 C-33.85259479 18.38386176 -30.77012001 18.62927062 -27.6875 18.875 C-26.61564453 18.95363281 -25.54378906 19.03226563 -24.43945312 19.11328125 C-23.41142578 19.19707031 -22.38339844 19.28085937 -21.32421875 19.3671875 C-19.9024231 19.47716064 -19.9024231 19.47716064 -18.4519043 19.58935547 C-16 20 -16 20 -13 22 C-12.3671875 24.2109375 -12.3671875 24.2109375 -13 27 C-15.13194287 29.48490311 -17.62606358 31.51876191 -20.125 33.625 C-27.19822896 39.87541466 -33.19827648 46.3908079 -35 56 C-35.30383925 61.41548779 -35.12003345 66.67984113 -34 72 C-36.51348246 70.03292677 -36.97353291 69.18526966 -37.4375 65.9375 C-37.623125 64.968125 -37.80875 63.99875 -38 63 C-39.3106235 62.28972662 -40.64833997 61.62867908 -42 61 C-48.98552423 55.19404894 -52.84450291 48.85129655 -55 40 C-55.8153513 30.69930666 -55.66259355 22.29077064 -51 14 C-50.67257813 13.37996094 -50.34515625 12.75992188 -50.0078125 12.12109375 C-45.72647663 5.13657866 -37.22289024 -1.13932159 -29.4140625 -3.59765625 C-19.5147811 -5.24753648 -8.86341679 -5.09612217 0 0 Z " fill="#FDFAFA" transform="translate(148,42)"/>
<path d="M0 0 C2 3 2 3 2 6 C3.91425781 5.96519531 3.91425781 5.96519531 5.8671875 5.9296875 C7.5364525 5.91093171 9.2057238 5.89273131 10.875 5.875 C11.71675781 5.85824219 12.55851562 5.84148437 13.42578125 5.82421875 C14.23144531 5.81777344 15.03710938 5.81132812 15.8671875 5.8046875 C16.61081543 5.79421387 17.35444336 5.78374023 18.12060547 5.77294922 C20 6 20 6 22 8 C8.54633124 19.51475767 -6.92141279 21.32616542 -24 20 C-28.51106618 19.27879506 -32.93878992 18.11920037 -37 16 C-37.33 15.01 -37.66 14.02 -38 13 C-38.66 12.67 -39.32 12.34 -40 12 C-39.67 11.34 -39.34 10.68 -39 10 C-39.66 9.67 -40.32 9.34 -41 9 C-40.67 8.01 -40.34 7.02 -40 6 C-26.29765396 4.92228739 -26.29765396 4.92228739 -21.25 5.0625 C-17.91176961 5.37402319 -17.91176961 5.37402319 -16 3 C-13.31160615 2.73008094 -10.70858064 2.91262643 -8 3 C-8 3.99 -8 4.98 -8 6 C-5.36 6 -2.72 6 0 6 C0 4.02 0 2.04 0 0 Z " fill="#E10219" transform="translate(143,129)"/>
<path d="M0 0 C5.69716187 4.383587 11.73174236 9.46348472 15 16 C15.68495541 26.13958582 15.36416101 34.65890195 11 44 C10.66484375 44.85722656 10.3296875 45.71445313 9.984375 46.59765625 C7.55822517 52.6726584 7.55822517 52.6726584 4.875 54.24609375 C4.25625 54.49488281 3.6375 54.74367188 3 55 C3 54.01 3 53.02 3 52 C0.03 51.505 0.03 51.505 -3 51 C-2.47599609 49.87851563 -2.47599609 49.87851563 -1.94140625 48.734375 C-1.48636719 47.74953125 -1.03132813 46.7646875 -0.5625 45.75 C-0.11003906 44.77546875 0.34242188 43.8009375 0.80859375 42.796875 C4.33273193 34.52381618 4.55182262 23.15815729 1.5625 14.625 C-2.3916802 6.33938567 -9.54381207 -1.25556254 -18 -5 C-23.22663549 -6.80119845 -27.7386427 -7.28470966 -33.1875 -7.1875 C-34.23454102 -7.1865332 -34.23454102 -7.1865332 -35.30273438 -7.18554688 C-38.05456777 -7.16198217 -40.58012182 -7.11944179 -43.23828125 -6.36328125 C-45.68861837 -5.85800109 -46.91761849 -6.73569694 -49 -8 C-31.64247495 -12.70712544 -15.22001558 -9.34404735 0 0 Z " fill="#E1061C" transform="translate(162,46)"/>
<path d="M0 0 C4.25181395 1.17802552 7.29777126 4.32008221 10.12890625 7.58984375 C11.35546875 9.82421875 11.35546875 9.82421875 12.12890625 11.58984375 C10.33856818 12.90415547 8.54659422 14.21623905 6.75390625 15.52734375 C5.75617188 16.25824219 4.7584375 16.98914063 3.73046875 17.7421875 C-0.41299446 20.68491738 -2.79078586 20.68392353 -7.87109375 20.58984375 C-7.12859375 19.75453125 -7.12859375 19.75453125 -6.37109375 18.90234375 C-4.62355008 16.20821392 -4.60890626 14.73609368 -4.87109375 11.58984375 C-7.80494749 10.12291688 -10.57917756 10.25398498 -13.84765625 10.0546875 C-14.8755275 9.99022179 -14.8755275 9.99022179 -15.92416382 9.92445374 C-18.11457807 9.78801505 -20.30530464 9.65761078 -22.49609375 9.52734375 C-23.98049324 9.43594382 -25.46486865 9.34415183 -26.94921875 9.25195312 C-30.58957517 9.02669858 -34.23023557 8.80685482 -37.87109375 8.58984375 C-37.87109375 8.25984375 -37.87109375 7.92984375 -37.87109375 7.58984375 C-36.68350464 7.48494629 -36.68350464 7.48494629 -35.47192383 7.37792969 C-31.87390908 7.04990255 -28.27901055 6.69517277 -24.68359375 6.33984375 C-22.81477539 6.17548828 -22.81477539 6.17548828 -20.90820312 6.0078125 C-19.70615234 5.88535156 -18.50410156 5.76289062 -17.265625 5.63671875 C-15.60817261 5.47961426 -15.60817261 5.47961426 -13.91723633 5.31933594 C-8.36106164 3.98873964 -6.19868227 -0.29405514 0 0 Z " fill="#E00319" transform="translate(138.87109375,52.41015625)"/>
<path d="M0 0 C1.12862175 5.36095333 1.09688221 10.55306686 1 16 C-1.31 16 -3.62 16 -6 16 C-6 15.34 -6 14.68 -6 14 C-7.299375 14.144375 -8.59875 14.28875 -9.9375 14.4375 C-10.66839844 14.51871094 -11.39929688 14.59992188 -12.15234375 14.68359375 C-14.01140229 14.81886614 -14.01140229 14.81886614 -15 16 C-17.67058851 16.14115161 -20.32432238 16.04247107 -23 16 C-21.60991034 14.08544428 -20.20063977 12.19081182 -18.76171875 10.3125 C-17.60609386 8.79558219 -16.48205669 7.25396 -15.39453125 5.6875 C-10.88005393 -0.31750546 -7.34996335 -1.06478342 0 0 Z " fill="#FAEFF0" transform="translate(141,118)"/>
<path d="M0 0 C1.93719378 -0.05406122 3.87481921 -0.09282025 5.8125 -0.125 C6.89144531 -0.14820313 7.97039062 -0.17140625 9.08203125 -0.1953125 C12 0 12 0 15 2 C14.67 3.32 14.34 4.64 14 6 C12.68 6.33 11.36 6.66 10 7 C10.33 8.65 10.66 10.3 11 12 C9.35 12 7.7 12 6 12 C5.67 10.68 5.34 9.36 5 8 C4.01 8 3.02 8 2 8 C1.67 9.32 1.34 10.64 1 12 C-0.65 12 -2.3 12 -4 12 C-3.52309796 10.37433394 -3.04340334 8.74948689 -2.5625 7.125 C-2.29566406 6.22007812 -2.02882812 5.31515625 -1.75390625 4.3828125 C-1 2 -1 2 0 0 Z " fill="#4B4543" transform="translate(144,161)"/>
<path d="M0 0 C2.64 0 5.28 0 8 0 C7.68817931 1.41681634 7.37551263 2.83344651 7.0625 4.25 C6.88847656 5.03890625 6.71445313 5.8278125 6.53515625 6.640625 C6.0527843 8.76728673 5.52889301 10.88442798 5 13 C7.97 13 10.94 13 14 13 C13.67 13.99 13.34 14.98 13 16 C7.39 16 1.78 16 -4 16 C-2.875 8.125 -2.875 8.125 -1.4375 4.0625 C-1.16808594 3.29035156 -0.89867187 2.51820312 -0.62109375 1.72265625 C-0.41613281 1.15417969 -0.21117187 0.58570312 0 0 Z " fill="#FCF6F6" transform="translate(150,118)"/>
<path d="M0 0 C2.31 0 4.62 0 7 0 C6.28321496 5.55508407 4.26002778 11.79854746 0.19140625 15.76171875 C-2.49237639 17.27822338 -4.19026345 17.30827907 -7.25 17.1875 C-8.14203125 17.16042969 -9.0340625 17.13335937 -9.953125 17.10546875 C-10.62859375 17.07066406 -11.3040625 17.03585938 -12 17 C-12 15.68 -12 14.36 -12 13 C-10.948125 12.896875 -9.89625 12.79375 -8.8125 12.6875 C-5.78137655 11.88043258 -5.09248461 11.15131765 -3.421875 8.41796875 C-2.18077759 5.63976507 -1.03780926 2.85995362 0 0 Z " fill="#FAF2F3" transform="translate(116,118)"/>
<path d="M0 0 C1.98 0 3.96 0 6 0 C6.28875 0.639375 6.5775 1.27875 6.875 1.9375 C7.82823451 4.15206079 7.82823451 4.15206079 10 5 C10.33 3.35 10.66 1.7 11 0 C12.65 0 14.3 0 16 0 C14.35 3.96 12.7 7.92 11 12 C9.35 11.67 7.7 11.34 6 11 C4.6875 8.4375 4.6875 8.4375 4 6 C3.34 6 2.68 6 2 6 C1.34 7.98 0.68 9.96 0 12 C-1.32 12 -2.64 12 -4 12 C-3.52309796 10.37433394 -3.04340334 8.74948689 -2.5625 7.125 C-2.29566406 6.22007812 -2.02882813 5.31515625 -1.75390625 4.3828125 C-1 2 -1 2 0 0 Z " fill="#281F1E" transform="translate(92,161)"/>
<path d="M0 0 C1.93742341 -0.02703381 3.87495479 -0.04641125 5.8125 -0.0625 C6.89144531 -0.07410156 7.97039062 -0.08570313 9.08203125 -0.09765625 C12 0 12 0 15 1 C14.75 3.375 14.75 3.375 14 6 C10.79958352 8.46185883 6.91640392 8.54810724 3 9 C2.67 9.99 2.34 10.98 2 12 C0.02 12 -1.96 12 -4 12 C-2.66666667 8 -1.33333333 4 0 0 Z " fill="#362E2C" transform="translate(58,161)"/>
<path d="M0 0 C2.8125 -0.3125 2.8125 -0.3125 6 0 C7.875 2.5 7.875 2.5 9 5 C9.66 3.35 10.32 1.7 11 0 C12.32 0 13.64 0 15 0 C14.33501617 4.38889325 12.81242323 7.9811485 11 12 C8.625 11.8125 8.625 11.8125 6 11 C4.6875 8.4375 4.6875 8.4375 4 6 C3.34 6 2.68 6 2 6 C1.34 7.98 0.68 9.96 0 12 C-1.32 12 -2.64 12 -4 12 C-3.52309796 10.37433394 -3.04340334 8.74948689 -2.5625 7.125 C-2.29566406 6.22007812 -2.02882812 5.31515625 -1.75390625 4.3828125 C-1 2 -1 2 0 0 Z " fill="#251D1B" transform="translate(186,161)"/>
<path d="M0 0 C0.98248524 4.0527516 1.08159574 7.83861737 1 12 C-0.98 12 -2.96 12 -5 12 C-5 11.34 -5 10.68 -5 10 C-5.886875 10.33 -6.77375 10.66 -7.6875 11 C-10.74077373 11.92174301 -12.86240276 12.08552224 -16 12 C-6.81125828 -0.6192053 -6.81125828 -0.6192053 0 0 Z " fill="#221B1A" transform="translate(128,161)"/>
<path d="M0 0 C1.5159375 0.2475 1.5159375 0.2475 3.0625 0.5 C3.0625 4.46 3.0625 8.42 3.0625 12.5 C1.4125 12.5 -0.2375 12.5 -1.9375 12.5 C-1.9375 11.84 -1.9375 11.18 -1.9375 10.5 C-3.54625 10.995 -3.54625 10.995 -5.1875 11.5 C-8.9375 12.5 -8.9375 12.5 -12.9375 12.5 C-10.19918768 6.56921624 -6.76677168 0.85927259 0 0 Z " fill="#3B3432" transform="translate(82.9375,160.5)"/>
<path d="M0 0 C1.57974609 0.17015625 1.57974609 0.17015625 3.19140625 0.34375 C3.19140625 4.30375 3.19140625 8.26375 3.19140625 12.34375 C1.54140625 12.34375 -0.10859375 12.34375 -1.80859375 12.34375 C-1.80859375 11.68375 -1.80859375 11.02375 -1.80859375 10.34375 C-2.88109375 10.694375 -3.95359375 11.045 -5.05859375 11.40625 C-8.59580118 12.29055186 -9.55670499 12.37255551 -12.80859375 11.34375 C-11.48182824 9.49049024 -10.1209641 7.66160863 -8.74609375 5.84375 C-7.99199219 4.8228125 -7.23789062 3.801875 -6.4609375 2.75 C-3.80859375 0.34375 -3.80859375 0.34375 0 0 Z " fill="#241C1B" transform="translate(48.80859375,160.65625)"/>
<path d="M0 0 C0.77601563 0.00644531 1.55203125 0.01289063 2.3515625 0.01953125 C4.375 0.1875 4.375 0.1875 6.375 1.1875 C6.375 1.8475 6.375 2.5075 6.375 3.1875 C3.405 3.1875 0.435 3.1875 -2.625 3.1875 C-2.625 3.5175 -2.625 3.8475 -2.625 4.1875 C0.015 4.8475 2.655 5.5075 5.375 6.1875 C4.375 10.1875 4.375 10.1875 2.640625 11.4296875 C0.00461061 12.31138886 -2.10127639 12.38549273 -4.875 12.3125 C-5.76703125 12.29445312 -6.6590625 12.27640625 -7.578125 12.2578125 C-8.59132812 12.22300781 -8.59132812 12.22300781 -9.625 12.1875 C-9.955 10.8675 -10.285 9.5475 -10.625 8.1875 C-7.42597361 8.09863816 -4.69822544 8.27691469 -1.625 9.1875 C-1.295 8.5275 -0.965 7.8675 -0.625 7.1875 C-3.265 6.8575 -5.905 6.5275 -8.625 6.1875 C-8.625 4.8675 -8.625 3.5475 -8.625 2.1875 C-5.61560247 0.44919503 -3.46557335 -0.063748 0 0 Z " fill="#1A1211" transform="translate(228.625,160.8125)"/>
<path d="M0 0 C4.29 0 8.58 0 13 0 C13 0.66 13 1.32 13 2 C9.92382812 2.29296875 9.92382812 2.29296875 6.84765625 2.5859375 C6.23792969 2.72257813 5.62820312 2.85921875 5 3 C4.67 3.66 4.34 4.32 4 5 C5.98 5 7.96 5 10 5 C10 5.66 10 6.32 10 7 C7.69 7 5.38 7 3 7 C3 7.66 3 8.32 3 9 C5.31 9 7.62 9 10 9 C9.67 9.99 9.34 10.98 9 12 C4.71 12 0.42 12 -4 12 C-1.125 2.25 -1.125 2.25 0 0 Z " fill="#292221" transform="translate(205,161)"/>
<path d="M0 0 C-0.33 0.99 -0.66 1.98 -1 3 C-1.66 2.67 -2.32 2.34 -3 2 C-3 1.34 -3 0.68 -3 0 C-3.66 0 -4.32 0 -5 0 C-5.33 0.99 -5.66 1.98 -6 3 C-6.56847656 2.59007812 -7.13695312 2.18015625 -7.72265625 1.7578125 C-8.49480469 1.21898437 -9.26695312 0.68015625 -10.0625 0.125 C-10.81660156 -0.40867187 -11.57070312 -0.94234375 -12.34765625 -1.4921875 C-18.12940579 -4.77901419 -23.71018353 -5.30305776 -30.1875 -5.1875 C-31.23454102 -5.1865332 -31.23454102 -5.1865332 -32.30273438 -5.18554688 C-35.05456777 -5.16198217 -37.58012182 -5.11944179 -40.23828125 -4.36328125 C-42.68861837 -3.85800109 -43.91761849 -4.73569694 -46 -6 C-29.75815669 -10.40456768 -14.82719656 -7.51759665 0 0 Z " fill="#DD0C1A" transform="translate(159,44)"/>
<path d="M0 0 C1.65 0 3.3 0 5 0 C4.34 2.64 3.68 5.28 3 8 C5.97 8.495 5.97 8.495 9 9 C8.67 9.99 8.34 10.98 8 12 C4.04 12 0.08 12 -4 12 C-3.07988583 7.39942914 -1.89559434 4.20327441 0 0 Z " fill="#221A18" transform="translate(163,161)"/>
<path d="M0 0 C1.65 0 3.3 0 5 0 C4.57630928 1.6286551 4.1355377 3.25287378 3.6875 4.875 C3.44386719 5.77992188 3.20023438 6.68484375 2.94921875 7.6171875 C2 10 2 10 -1 12 C-3.04296875 12.1953125 -3.04296875 12.1953125 -5.1875 12.125 C-7.0746875 12.063125 -7.0746875 12.063125 -9 12 C-9 11.34 -9 10.68 -9 10 C-8.2575 9.835 -7.515 9.67 -6.75 9.5 C-2.7592964 7.32325258 -1.69986601 4.083477 0 0 Z " fill="#221A19" transform="translate(33,161)"/>
<path d="M0 0 C3.3 0 6.6 0 10 0 C10.33 0.99 10.66 1.98 11 3 C9.625 4.5 9.625 4.5 8 6 C7.34 6 6.68 6 6 6 C6.33 7.65 6.66 9.3 7 11 C5.35 11 3.7 11 2 11 C1.87625 10.195625 1.7525 9.39125 1.625 8.5625 C1.315625 7.2940625 1.315625 7.2940625 1 6 C0.34 5.67 -0.32 5.34 -1 5 C0.65 4.67 2.3 4.34 4 4 C4.33 3.01 4.66 2.02 5 1 C3.35 1 1.7 1 0 1 C0 0.67 0 0.34 0 0 Z " fill="#1E1514" transform="translate(148,162)"/>
<path d="M0 0 C1.98 0 3.96 0 6 0 C4.35 3.96 2.7 7.92 1 12 C-0.65 12 -2.3 12 -4 12 C-3.52309796 10.37433394 -3.04340334 8.74948689 -2.5625 7.125 C-2.29566406 6.22007812 -2.02882812 5.31515625 -1.75390625 4.3828125 C-1 2 -1 2 0 0 Z " fill="#271E1D" transform="translate(177,161)"/>
<path d="M0 0 C1.65 0 3.3 0 5 0 C4.52309796 1.62566606 4.04340334 3.25051311 3.5625 4.875 C3.29566406 5.77992188 3.02882812 6.68484375 2.75390625 7.6171875 C2 10 2 10 1 12 C-0.65 12 -2.3 12 -4 12 C-3.33501617 7.61110675 -1.81242323 4.0188515 0 0 Z " fill="#241B1A" transform="translate(135,161)"/>
<path d="M0 0 C1.93742341 -0.02703381 3.87495479 -0.04641125 5.8125 -0.0625 C6.89144531 -0.07410156 7.97039062 -0.08570313 9.08203125 -0.09765625 C12 0 12 0 15 1 C14.625 3.4375 14.625 3.4375 14 6 C11.59454362 7.20272819 10.05003047 7.10071472 7.375 7.0625 C6.14910156 7.04896484 6.14910156 7.04896484 4.8984375 7.03515625 C3.95871094 7.01775391 3.95871094 7.01775391 3 7 C3.33 6.01 3.66 5.02 4 4 C4 4.66 4 5.32 4 6 C5.65 5.34 7.3 4.68 9 4 C5.92677456 3.08941469 3.19902639 2.91113816 0 3 C0 2.01 0 1.02 0 0 Z " fill="#211A19" transform="translate(58,161)"/>
<path d="M0 0 C1.65 0 3.3 0 5 0 C4.95117188 3.07617188 4.95117188 3.07617188 4.90234375 6.15234375 C4.79438816 8.01732141 4.79438816 8.01732141 6 9 C6 7.02 6 5.04 6 3 C6.33 3 6.66 3 7 3 C7 5.31 7 7.62 7 10 C5.02 10 3.04 10 1 10 C1 9.34 1 8.68 1 8 C-0.65 8 -2.3 8 -4 8 C-3.34 6.68 -2.68 5.36 -2 4 C-1.34 4 -0.68 4 0 4 C0 2.68 0 1.36 0 0 Z " fill="#504946" transform="translate(122,163)"/>
<path d="M0 0 C0.77601563 0.00644531 1.55203125 0.01289063 2.3515625 0.01953125 C4.375 0.1875 4.375 0.1875 6.375 1.1875 C6.375 1.8475 6.375 2.5075 6.375 3.1875 C3.405 3.1875 0.435 3.1875 -2.625 3.1875 C-2.625 4.1775 -2.625 5.1675 -2.625 6.1875 C-5.625 7.1875 -5.625 7.1875 -8.625 6.1875 C-8.625 4.8675 -8.625 3.5475 -8.625 2.1875 C-5.61560247 0.44919503 -3.46557335 -0.063748 0 0 Z " fill="#211918" transform="translate(228.625,160.8125)"/>
<path d="M0 0 C-0.33 0.99 -0.66 1.98 -1 3 C-8.92 2.67 -16.84 2.34 -25 2 C-25 1.67 -25 1.34 -25 1 C-21.95923996 0.63571093 -18.91787324 0.28328105 -15.875 -0.0625 C-14.59109375 -0.2181543 -14.59109375 -0.2181543 -13.28125 -0.37695312 C-8.62245272 -0.89658821 -4.62395033 -1.08397524 0 0 Z " fill="#DB1A25" transform="translate(126,59)"/>
<path d="M0 0 C0.66 0 1.32 0 2 0 C2 0.66 2 1.32 2 2 C2.556875 1.7525 3.11375 1.505 3.6875 1.25 C6 1 6 1 8.75 2.9375 C9.86375 3.9584375 9.86375 3.9584375 11 5 C10.01 5.33 9.02 5.66 8 6 C8.33 7.32 8.66 8.64 9 10 C8.01 10.33 7.02 10.66 6 11 C4.98805294 9.92781799 3.99081943 8.84173622 3 7.75 C2.443125 7.14671875 1.88625 6.5434375 1.3125 5.921875 C0 4 0 4 0 0 Z " fill="#DE0F21" transform="translate(154,44)"/>
<path d="M0 0 C2.86520312 2.86520312 4.01699865 6.0969064 5 10 C4.6875 13.5 4.6875 13.5 4 16 C3.67 16 3.34 16 3 16 C2.67 14.35 2.34 12.7 2 11 C0.68 11.33 -0.64 11.66 -2 12 C-1.34 8.04 -0.68 4.08 0 0 Z " fill="#DF2933" transform="translate(180,68)"/>
<path d="M0 0 C1.125 1.6875 1.125 1.6875 2 4 C0.63641943 10.13611259 -4.55688348 15.72930292 -9 20 C-9.66 19.67 -10.32 19.34 -11 19 C-10.61328125 18.5875 -10.2265625 18.175 -9.828125 17.75 C-5.04212839 12.44275623 -1.57479417 7.03200168 0 0 Z " fill="#F2CBCF" transform="translate(183,85)"/>
<path d="M0 0 C3.90186951 1.30062317 4.12119896 2.64630456 5.9375 6.25 C7.9900845 10.18625306 10.01808241 13.67401499 13 17 C9.24896447 15.49115649 7.31556609 13.31985475 4.8125 10.1875 C3.77029297 8.90939453 3.77029297 8.90939453 2.70703125 7.60546875 C0.97710086 4.96504868 0.37347173 3.10483214 0 0 Z " fill="#F1C3C6" transform="translate(74,88)"/>
<path d="M0 0 C0.5534764 2.07553648 1 3.84365964 1 6 C-6.42857143 8.42857143 -6.42857143 8.42857143 -10 7 C-6.66740576 2.18625277 -6.66740576 2.18625277 -3.3125 1.25 C-2.549375 1.1675 -1.78625 1.085 -1 1 C-0.67 0.67 -0.34 0.34 0 0 Z " fill="#56504E" transform="translate(46,165)"/>
<path d="M0 0 C0.66 0.99 1.32 1.98 2 3 C-0.31 5.64 -2.62 8.28 -5 11 C-2.03 11.495 -2.03 11.495 1 12 C1 12.33 1 12.66 1 13 C-1.64 13 -4.28 13 -7 13 C-7 9.76344816 -6.3449153 8.21247361 -5 5.3125 C-4.62875 4.50425781 -4.2575 3.69601563 -3.875 2.86328125 C-3.58625 2.24839844 -3.2975 1.63351563 -3 1 C-2.34 1.33 -1.68 1.66 -1 2 C-0.67 1.34 -0.34 0.68 0 0 Z " fill="#DA303C" transform="translate(124,122)"/>
<path d="M0 0 C2.64 0.33 5.28 0.66 8 1 C7.67 1.99 7.34 2.98 7 4 C3.04 4 -0.92 4 -5 4 C-5 3.34 -5 2.68 -5 2 C-3.35 2 -1.7 2 0 2 C0 1.34 0 0.68 0 0 Z " fill="#3C3533" transform="translate(164,169)"/>
<path d="M0 0 C0 0.33 0 0.66 0 1 C-2.91442159 1.55769796 -5.83025667 2.0965802 -8.75 2.625 C-9.575 2.78484375 -10.4 2.9446875 -11.25 3.109375 C-12.44882813 3.32207031 -12.44882813 3.32207031 -13.671875 3.5390625 C-14.4050293 3.67521973 -15.13818359 3.81137695 -15.89355469 3.95166016 C-18.43917336 4.01007839 -19.83647454 3.28699835 -22 2 C-14.56340812 -0.01670288 -7.68395543 -0.2137731 0 0 Z " fill="#DE484F" transform="translate(135,36)"/>
<path d="M0 0 C2.04159095 -0.0272616 4.08328963 -0.04651345 6.125 -0.0625 C7.26195312 -0.07410156 8.39890625 -0.08570313 9.5703125 -0.09765625 C12.8129156 -0.005327 15.81932612 0.38610094 19 1 C18.67 1.99 18.34 2.98 18 4 C16.88625 3.690625 15.7725 3.38125 14.625 3.0625 C9.79490988 1.84199336 4.95709931 1.38600363 0 1 C0 0.67 0 0.34 0 0 Z " fill="#D91D26" transform="translate(127,37)"/>
<path d="M0 0 C1.11375 0.9590625 1.11375 0.9590625 2.25 1.9375 C4.7111121 3.78333407 6.03466926 4.56069174 9 5 C8.67 5.66 8.34 6.32 8 7 C7.01 6.67 6.02 6.34 5 6 C5 6.66 5 7.32 5 8 C4.01 8 3.02 8 2 8 C0.74335022 5.09399739 0 3.20395416 0 0 Z " fill="#DD1021" transform="translate(75,107)"/>
<path d="M0 0 C0.33 0.99 0.66 1.98 1 3 C0.2884375 3.556875 0.2884375 3.556875 -0.4375 4.125 C-2.52205802 6.62646962 -2.64621491 8.81593418 -3 12 C-3.66 12 -4.32 12 -5 12 C-4.58525633 6.71201818 -3.64775386 3.88309282 0 0 Z " fill="#DC1E2C" transform="translate(87,55)"/>
<path d="M0 0 C2.18043828 2.18043828 2.56240225 3.02433527 3 6 C2.75 8.1875 2.75 8.1875 2 10 C1.01 10.33 0.02 10.66 -1 11 C-0.67 7.37 -0.34 3.74 0 0 Z " fill="#DD0C18" transform="translate(180,68)"/>
<path d="M0 0 C2.97 0.33 5.94 0.66 9 1 C9 1.33 9 1.66 9 2 C5.12315913 3.19287411 2.08378077 4 -2 4 C-1.34 2.68 -0.68 1.36 0 0 Z " fill="#4A4342" transform="translate(72,169)"/>
<path d="M0 0 C-0.33 1.32 -0.66 2.64 -1 4 C-0.01 4.33 0.98 4.66 2 5 C2 5.33 2 5.66 2 6 C-0.31 6 -2.62 6 -5 6 C-5 3 -5 3 -3.625 1.3125 C-2 0 -2 0 0 0 Z " fill="#140A09" transform="translate(79,164)"/>
<path d="M0 0 C6.75 -0.125 6.75 -0.125 9 1 C9 1.66 9 2.32 9 3 C6.03 2.67 3.06 2.34 0 2 C0 1.34 0 0.68 0 0 Z " fill="#0D0706" transform="translate(226,161)"/>
<path d="M0 0 C-1.75 3.875 -1.75 3.875 -4 5 C-4 4.34 -4 3.68 -4 3 C-5.65 2.67 -7.3 2.34 -9 2 C-9 1.67 -9 1.34 -9 1 C-5.846632 0.29925156 -3.27275026 0 0 0 Z " fill="#E01425" transform="translate(138,72)"/>
<path d="M0 0 C-2.85306797 2.32472205 -5.54074837 3.7508258 -9 5 C-8.625 3.0625 -8.625 3.0625 -8 1 C-5.29120665 -0.35439668 -2.99066732 -0.06501451 0 0 Z " fill="#DC0810" transform="translate(117,39)"/>
<path d="M0 0 C1.65 0 3.3 0 5 0 C5.33 0.99 5.66 1.98 6 3 C4.35 3.33 2.7 3.66 1 4 C0.67 2.68 0.34 1.36 0 0 Z " fill="#2F2725" transform="translate(218,169)"/>
<path d="M0 0 C2.97 0.33 5.94 0.66 9 1 C9 1.33 9 1.66 9 2 C4.545 2.495 4.545 2.495 0 3 C0 2.01 0 1.02 0 0 Z " fill="#C0BEBC" transform="translate(226,163)"/>
<path d="M0 0 C1.65 0.33 3.3 0.66 5 1 C4.01 2.485 4.01 2.485 3 4 C1.68 4 0.36 4 -1 4 C-0.67 2.68 -0.34 1.36 0 0 Z " fill="#C8C7C6" transform="translate(63,163)"/>
<path d="M0 0 C0.99 0.33 1.98 0.66 3 1 C3.33 3.31 3.66 5.62 4 8 C0 3.375 0 3.375 0 0 Z " fill="#F5E0E2" transform="translate(74,88)"/>
<path d="M0 0 C0.66 0.99 1.32 1.98 2 3 C1.360625 3.78375 0.72125 4.5675 0.0625 5.375 C-1.98142313 7.79539281 -1.98142313 7.79539281 -3 10 C-3.66 9.67 -4.32 9.34 -5 9 C-3.35 6.03 -1.7 3.06 0 0 Z " fill="#DE1523" transform="translate(119,83)"/>
<path d="M0 0 C1.65 0 3.3 0 5 0 C4.34 1.32 3.68 2.64 3 4 C3 3.34 3 2.68 3 2 C2.01 2 1.02 2 0 2 C0 2.99 0 3.98 0 5 C-0.66 4.67 -1.32 4.34 -2 4 C-1.34 2.68 -0.68 1.36 0 0 Z " fill="#2B2422" transform="translate(163,161)"/>
</svg>
