<?xml version="1.0" encoding="UTF-8"?>
<svg version="1.1" xmlns="http://www.w3.org/2000/svg" width="225" height="225">
<path d="M0 0 C74.25 0 148.5 0 225 0 C225 74.25 225 148.5 225 225 C150.75 225 76.5 225 0 225 C0 150.75 0 76.5 0 0 Z " fill="#FEFEFE" transform="translate(0,0)"/>
<path d="M0 0 C2.59120172 1.8645967 4.16177738 3.67166141 5.89453125 6.36328125 C6.88270281 12.51028962 7.06526788 19.21214027 3.89453125 24.73828125 C3.23453125 25.60453125 2.57453125 26.47078125 1.89453125 27.36328125 C4.53453125 26.70328125 7.17453125 26.04328125 9.89453125 25.36328125 C9.29269376 27.38373567 8.62147029 29.38439164 7.89453125 31.36328125 C4.42203671 33.09952852 0.464308 32.3742385 -3.35546875 32.30078125 C-6.06799888 32.16672319 -6.06799888 32.16672319 -8.10546875 33.36328125 C-10.20600591 33.51229616 -12.312347 33.58466578 -14.41796875 33.61328125 C-15.54847656 33.6390625 -16.67898437 33.66484375 -17.84375 33.69140625 C-21.44832439 33.32879038 -23.22805691 32.51881609 -26.10546875 30.36328125 C-30.14617396 25.23049355 -30.84453853 20.80140188 -30.625 14.3046875 C-29.57439588 8.35653036 -25.83072376 5.00227351 -21.60546875 0.98828125 C-14.34729419 -3.72953221 -7.58355595 -3.75316517 0 0 Z " fill="#E21019" transform="translate(46.10546875,92.63671875)"/>
<path d="M0 0 C3.15689734 1.60714774 5.19415756 2.97438234 7.375 5.75 C9.19127625 12.28859449 8.06256491 16.77592447 4.875 22.53125 C4.441875 23.25828125 4.441875 23.25828125 4 24 C-0.58234046 24 -1.05508122 23.4819242 -4.25 20.5 C-4.95640625 19.8503125 -5.6628125 19.200625 -6.390625 18.53125 C-6.92171875 18.0259375 -7.4528125 17.520625 -8 17 C-6 15 -6 15 -2.5 13.625 C0.97669259 12.33657176 0.97669259 12.33657176 2.5 10.0625 C3.08118098 7.66512847 2.66392615 6.33838694 2 4 C1.37351562 4.5053125 0.74703125 5.010625 0.1015625 5.53125 C-0.71570313 6.1809375 -1.53296875 6.830625 -2.375 7.5 C-3.18710937 8.1496875 -3.99921875 8.799375 -4.8359375 9.46875 C-7 11 -7 11 -9 11 C-8.67 9.35 -8.34 7.7 -8 6 C-9.65 6 -11.3 6 -13 6 C-15.88549626 12.58341381 -17.85210257 18.90116066 -19 26 C-17.02 26 -15.04 26 -13 26 C-13 23.69 -13 21.38 -13 19 C-12.01 19 -11.02 19 -10 19 C-8.39453125 20.8984375 -8.39453125 20.8984375 -6.8125 23.375 C-6.28269531 24.18710938 -5.75289062 24.99921875 -5.20703125 25.8359375 C-4 28 -4 28 -4 30 C-8.232009 32.1160045 -12.33701079 32.74826833 -17 32 C-21.07246524 29.88835135 -23.2747817 28.21979071 -25 24 C-26.04457249 18.74700563 -25.27241597 14.77830577 -22.4375 10.25 C-16.69624687 2.46801709 -9.69106881 -1.20724919 0 0 Z " fill="#FCEAEB" transform="translate(43,93)"/>
<path d="M0 0 C1.66666667 0.33333333 3.33333333 0.66666667 5 1 C5.33 0.67 5.66 0.34 6 0 C8.33297433 -0.04092937 10.66705225 -0.04241723 13 0 C13.33 1.98 13.66 3.96 14 6 C14.66 4.35 15.32 2.7 16 1 C17.32 1 18.64 1 20 1 C20 2.98 20 4.96 20 7 C20.66 7 21.32 7 22 7 C22.33 5.02 22.66 3.04 23 1 C24.32 0.67 25.64 0.34 27 0 C25.55049545 3.7910119 23.84827434 7.3874638 22 11 C20.68 11 19.36 11 18 11 C18 9.35 18 7.7 18 6 C17.34 6 16.68 6 16 6 C15.34 7.65 14.68 9.3 14 11 C12.68 11 11.36 11 10 11 C9.34 8.69 8.68 6.38 8 4 C4.24848856 5.78907722 4.24848856 5.78907722 2.1875 9.1875 C2.125625 9.785625 2.06375 10.38375 2 11 C0.68 11 -0.64 11 -2 11 C-1.85957123 9.35369672 -1.71250671 7.70795821 -1.5625 6.0625 C-1.48128906 5.14597656 -1.40007812 4.22945313 -1.31640625 3.28515625 C-1 1 -1 1 0 0 Z " fill="#E1040C" transform="translate(149,105)"/>
<path d="M0 0 C0.66 0 1.32 0 2 0 C4.48637941 3.72956911 4.6685749 7.67758555 4 12 C2.89872932 14.81542244 1.54596898 17.40498063 0 20 C-4.58234046 20 -5.05508122 19.4819242 -8.25 16.5 C-9.30960938 15.52546875 -9.30960938 15.52546875 -10.390625 14.53125 C-11.18726563 13.77328125 -11.18726563 13.77328125 -12 13 C-10 11 -10 11 -6.5625 9.875 C-4.1097827 8.89902291 -3.1992973 8.34946228 -1.875 6.02734375 C-1.15035246 4.05198243 -0.56485849 2.02684516 0 0 Z " fill="#FDF2F3" transform="translate(47,97)"/>
<path d="M0 0 C0 0.33 0 0.66 0 1 C-0.72445312 1.03738281 -1.44890625 1.07476562 -2.1953125 1.11328125 C-10.29088177 1.66377996 -15.97505749 3.29215973 -22 9 C-25.8933819 14.36655343 -26.74097394 18.42841146 -26 25 C-25.69331834 26.33971461 -25.36768713 27.67572848 -25 29 C-28 27 -28 27 -29 24 C-29.71220903 17.91466965 -30.05994156 12.60228582 -26.3125 7.5 C-19.19850886 -0.53031319 -10.46818159 -5.07548199 0 0 Z " fill="#E20E16" transform="translate(45,92)"/>
<path d="M0 0 C-0.66 3.96 -1.32 7.92 -2 12 C-5.3 12 -8.6 12 -12 12 C-12.75 9.875 -12.75 9.875 -13 7 C-9.30128129 0.36781473 -7.3881824 -0.13681819 0 0 Z " fill="#E63137" transform="translate(187,105)"/>
<path d="M0 0 C1.32 0.33 2.64 0.66 4 1 C4 2.32 4 3.64 4 5 C4.61875 4.175 5.2375 3.35 5.875 2.5 C6.57625 1.675 7.2775 0.85 8 0 C8.66 0 9.32 0 10 0 C8.125 4.75 8.125 4.75 7 7 C7.9873454 8.67419438 8.98812105 10.34051852 10 12 C10 12.99 10 13.98 10 15 C8.68 15 7.36 15 6 15 C5.01 13.02 4.02 11.04 3 9 C2.67 10.98 2.34 12.96 2 15 C0.35 15 -1.3 15 -3 15 C-2.01 10.05 -1.02 5.1 0 0 Z " fill="#E3151D" transform="translate(62,102)"/>
<path d="M0 0 C1.65 0 3.3 0 5 0 C6.33583899 4.84241633 7.25328119 8.93437617 7 14 C5.68 14 4.36 14 3 14 C3 13.01 3 12.02 3 11 C1.02 11 -0.96 11 -3 11 C-3.33 12.32 -3.66 13.64 -4 15 C-4.99 15 -5.98 15 -7 15 C-5.63408831 11.45756548 -4.09068516 8.07372071 -2.375 4.6875 C-1.70597656 3.36298828 -1.70597656 3.36298828 -1.0234375 2.01171875 C-0.68570313 1.34785156 -0.34796875 0.68398437 0 0 Z " fill="#E63137" transform="translate(132,102)"/>
<path d="M0 0 C-0.33 3.3 -0.66 6.6 -1 10 C-2.32 10.33 -3.64 10.66 -5 11 C-5.33 10.34 -5.66 9.68 -6 9 C-6.66 9.66 -7.32 10.32 -8 11 C-10.125 10.625 -10.125 10.625 -12 10 C-12.31424507 6.54330418 -12.37956836 4.60098323 -10.5 1.625 C-6.86748926 -0.73613198 -4.28156703 -0.2854378 0 0 Z " fill="#E41922" transform="translate(121,106)"/>
<path d="M0 0 C1.32 0.33 2.64 0.66 4 1 C4.125 7.625 4.125 7.625 3 11 C1.68 11 0.36 11 -1 11 C-1 9.02 -1 7.04 -1 5 C-3.22189824 7.22189824 -3.92598892 9.08482708 -5 12 C-5.99 12 -6.98 12 -8 12 C-7.67 8.37 -7.34 4.74 -7 1 C-5.68 1 -4.36 1 -3 1 C-2.67 1.66 -2.34 2.32 -2 3 C-1.34 2.01 -0.68 1.02 0 0 Z " fill="#E31920" transform="translate(93,105)"/>
<path d="M0 0 C-0.1875 2.375 -0.1875 2.375 -1 5 C-3.5625 6.3125 -3.5625 6.3125 -6 7 C-6 7.66 -6 8.32 -6 9 C-4.02 8.67 -2.04 8.34 0 8 C0 8.66 0 9.32 0 10 C-2.76250036 11.38125018 -4.94731099 11.19079306 -8 11 C-8.66 10.34 -9.32 9.68 -10 9 C-9.8640795 5.26218621 -9.75664621 2.86473852 -7.25 0 C-4.4193689 -1.25805827 -2.91481676 -0.89063845 0 0 Z " fill="#E3161E" transform="translate(83,106)"/>
<path d="M0 0 C1.32 0 2.64 0 4 0 C4.33 1.32 4.66 2.64 5 4 C5.99 2.68 6.98 1.36 8 0 C8.99 0.33 9.98 0.66 11 1 C9.60016049 3.34503029 8.18197761 5.67471975 6.75 8 C6.35425781 8.66773437 5.95851563 9.33546875 5.55078125 10.0234375 C4.359375 11.9375 4.359375 11.9375 2 15 C0.68 15 -0.64 15 -2 15 C-2 14.34 -2 13.68 -2 13 C-1.34 13 -0.68 13 0 13 C0 8.71 0 4.42 0 0 Z " fill="#E52B33" transform="translate(99,106)"/>
<path d="M0 0 C1.32 0 2.64 0 4 0 C4 1.65 4 3.3 4 5 C4.66 5 5.32 5 6 5 C6.66 3.35 7.32 1.7 8 0 C8.99 0 9.98 0 11 0 C9.65070536 3.83663072 7.92248975 6.65172569 5.375 9.8125 C4.74335938 10.60269531 4.11171875 11.39289063 3.4609375 12.20703125 C2.97882813 12.79871094 2.49671875 13.39039062 2 14 C1.01 13.67 0.02 13.34 -1 13 C-0.67 12.67 -0.34 12.34 0 12 C0.07244053 9.98035801 0.08377188 7.95832876 0.0625 5.9375 C0.05347656 4.83277344 0.04445312 3.72804688 0.03515625 2.58984375 C0.02355469 1.73519531 0.01195312 0.88054687 0 0 Z " fill="#E41D22" transform="translate(189,106)"/>
<path d="M0 0 C1.4540625 0.0309375 1.4540625 0.0309375 2.9375 0.0625 C2.9375 1.0525 2.9375 2.0425 2.9375 3.0625 C1.6175 3.0625 0.2975 3.0625 -1.0625 3.0625 C-1.0625 3.7225 -1.0625 4.3825 -1.0625 5.0625 C-0.0725 5.3925 0.9175 5.7225 1.9375 6.0625 C1.6075 7.7125 1.2775 9.3625 0.9375 11.0625 C-1.3725 11.3925 -3.6825 11.7225 -6.0625 12.0625 C-6.3925 11.0725 -6.7225 10.0825 -7.0625 9.0625 C-5.4125 9.0625 -3.7625 9.0625 -2.0625 9.0625 C-2.8359375 8.19625 -2.8359375 8.19625 -3.625 7.3125 C-5.0625 5.0625 -5.0625 5.0625 -4.8125 2.875 C-3.5716246 -0.1237822 -3.47902134 0.07100044 0 0 Z " fill="#E5292F" transform="translate(206.0625,104.9375)"/>
<path d="M0 0 C3.3404479 0.27837066 4.72530894 0.72781525 7.140625 3.12109375 C10.47713804 8.28708137 9.70764179 14.06669576 9 20 C7.95825145 22.83786674 6.84847165 24.57388096 5 27 C4.34 26.01 3.68 25.02 3 24 C3.433125 23.27296875 3.433125 23.27296875 3.875 22.53125 C6.72951747 17.37726012 7.67571691 13.88839019 7 8 C5.34195904 4.26940785 3.39781562 2.22615506 0 0 Z " fill="#E63338" transform="translate(43,93)"/>
<path d="M0 0 C2.09350689 3.4019487 2.17942163 6.05272412 2 10 C0.68 10 -0.64 10 -2 10 C-2 9.01 -2 8.02 -2 7 C-3.98 7 -5.96 7 -8 7 C-8.33 8.32 -8.66 9.64 -9 11 C-9.99 11 -10.98 11 -12 11 C-10.25 6.125 -10.25 6.125 -8 5 C-6.00039988 4.960008 -3.99952758 4.95653201 -2 5 C-1.34 3.35 -0.68 1.7 0 0 Z " fill="#E5282E" transform="translate(137,106)"/>
<path d="M0 0 C0.99 0 1.98 0 3 0 C3.25 2.8125 3.25 2.8125 3 6 C1.25 7.9375 1.25 7.9375 -1 9 C-3.25 8.6875 -3.25 8.6875 -5 8 C-5 6.02 -5 4.04 -5 2 C-4.34 2.66 -3.68 3.32 -3 4 C-2.566875 3.34 -2.13375 2.68 -1.6875 2 C-1.130625 1.34 -0.57375 0.68 0 0 Z " fill="#EC676C" transform="translate(114,108)"/>
<path d="M0 0 C1.32 0 2.64 0 4 0 C3.125 7.75 3.125 7.75 2 10 C1.01 10 0.02 10 -1 10 C-0.67 6.7 -0.34 3.4 0 0 Z " fill="#E3151C" transform="translate(142,106)"/>
<path d="M0 0 C1.32 0 2.64 0 4 0 C3.67 3.3 3.34 6.6 3 10 C1.68 10 0.36 10 -1 10 C-0.67 6.7 -0.34 3.4 0 0 Z " fill="#E20E16" transform="translate(148,106)"/>
<path d="M0 0 C0.804375 0.185625 1.60875 0.37125 2.4375 0.5625 C3.283125 0.706875 4.12875 0.85125 5 1 C5.33 0.67 5.66 0.34 6 0 C8.33297433 -0.04092937 10.66705225 -0.04241723 13 0 C12.01 0.33 11.02 0.66 10 1 C9.26676204 3.01508358 9.26676204 3.01508358 9 5 C6.66666667 5 4.33333333 5 2 5 C2.33 3.68 2.66 2.36 3 1 C2.01 0.67 1.02 0.34 0 0 Z " fill="#ED7175" transform="translate(149,105)"/>
<path d="M0 0 C1.32 0 2.64 0 4 0 C5.125 7.75 5.125 7.75 4 10 C3.34 10 2.68 10 2 10 C0.68373308 6.38026598 0 3.90432869 0 0 Z " fill="#E20812" transform="translate(189,106)"/>
<path d="M0 0 C0.66 0 1.32 0 2 0 C2 1.65 2 3.3 2 5 C2.66 5.33 3.32 5.66 4 6 C3.34 6.66 2.68 7.32 2 8 C-0.125 7.625 -0.125 7.625 -2 7 C-1.125 1.125 -1.125 1.125 0 0 Z " fill="#E3131B" transform="translate(176,109)"/>
<path d="M0 0 C0.33 0.66 0.66 1.32 1 2 C1.66 2 2.32 2 3 2 C3 3.65 3 5.3 3 7 C2.34 6.34 1.68 5.68 1 5 C0.67 6.32 0.34 7.64 0 9 C-1.98 9 -3.96 9 -6 9 C-6 8.34 -6 7.68 -6 7 C-5.195625 6.54625 -4.39125 6.0925 -3.5625 5.625 C-0.84763807 4.26579005 -0.84763807 4.26579005 -0.1875 1.8125 C-0.125625 1.214375 -0.06375 0.61625 0 0 Z " fill="#F6BDC0" transform="translate(83,106)"/>
<path d="M0 0 C2.625 0.375 2.625 0.375 5 1 C4.1875 3.4375 4.1875 3.4375 3 6 C2.01 6.33 1.02 6.66 0 7 C0 5.68 0 4.36 0 3 C-0.66 2.67 -1.32 2.34 -2 2 C-1.34 1.34 -0.68 0.68 0 0 Z " fill="#F0878A" transform="translate(178,106)"/>
<path d="M0 0 C0.99 0 1.98 0 3 0 C1.55049545 3.7910119 -0.15172566 7.3874638 -2 11 C-2.66 9.68 -3.32 8.36 -4 7 C-3.34 7 -2.68 7 -2 7 C-1.855625 6.030625 -1.71125 5.06125 -1.5625 4.0625 C-1 1 -1 1 0 0 Z " fill="#E52C30" transform="translate(173,105)"/>
<path d="M0 0 C0 0.66 0 1.32 0 2 C-0.66 2 -1.32 2 -2 2 C-2.33 3.32 -2.66 4.64 -3 6 C-3.66 6 -4.32 6 -5 6 C-5.33 5.34 -5.66 4.68 -6 4 C-6.66 3.67 -7.32 3.34 -8 3 C-4.93882432 0.37613513 -4.26826873 0 0 0 Z " fill="#EB5D60" transform="translate(82,105)"/>
<path d="M0 0 C0.99 0 1.98 0 3 0 C3.33 0.99 3.66 1.98 4 3 C3.34 3.66 2.68 4.32 2 5 C1.35232207 7.57061311 1.35232207 7.57061311 1 10 C0.01 10 -0.98 10 -2 10 C-2.33 9.34 -2.66 8.68 -3 8 C-1.68 6.02 -0.36 4.04 1 2 C0.67 1.34 0.34 0.68 0 0 Z " fill="#F8C8CB" transform="translate(108,105)"/>
<path d="M0 0 C0.33 0.66 0.66 1.32 1 2 C1.99 2 2.98 2 4 2 C4 3.65 4 5.3 4 7 C2.35 7 0.7 7 -1 7 C-0.67 4.69 -0.34 2.38 0 0 Z " fill="#E73E44" transform="translate(60,110)"/>
<path d="M0 0 C2.01822917 0.06510417 4.03645833 0.13020833 6.0546875 0.1953125 C6.0546875 0.5253125 6.0546875 0.8553125 6.0546875 1.1953125 C4.9409375 1.4221875 3.8271875 1.6490625 2.6796875 1.8828125 C-1.10569623 2.80154908 -1.10569623 2.80154908 -2.3828125 5.8203125 C-2.5684375 6.6040625 -2.7540625 7.3878125 -2.9453125 8.1953125 C-3.6053125 7.5353125 -4.2653125 6.8753125 -4.9453125 6.1953125 C-4.53127117 2.88298187 -3.68015042 0.36949301 0 0 Z " fill="#E10308" transform="translate(114.9453125,105.8046875)"/>
<path d="M0 0 C0.99 0 1.98 0 3 0 C3.33 3.3 3.66 6.6 4 10 C3.01 10 2.02 10 1 10 C0 3.375 0 3.375 0 0 Z " fill="#E10106" transform="translate(166,106)"/>
<path d="M0 0 C0.66 0 1.32 0 2 0 C2 1.65 2 3.3 2 5 C3.32 5.33 4.64 5.66 6 6 C2 6 -2 6 -6 6 C-5.38125 5.7525 -4.7625 5.505 -4.125 5.25 C-1.64931313 3.79371361 -1.04874998 2.62187494 0 0 Z " fill="#F29FA3" transform="translate(165,111)"/>
<path d="M0 0 C0.93423645 3.01031744 1.04449911 3.86650268 0 7 C-1.32 7 -2.64 7 -4 7 C-4 5.35 -4 3.7 -4 2 C-2.68 2.33 -1.36 2.66 0 3 C0 2.01 0 1.02 0 0 Z " fill="#E63339" transform="translate(96,109)"/>
<path d="M0 0 C0.99 0 1.98 0 3 0 C3.125 2.875 3.125 2.875 3 6 C2.34 6.66 1.68 7.32 1 8 C-0.35439668 5.29120665 -0.06501451 2.99066732 0 0 Z " fill="#E1030A" transform="translate(99,106)"/>
<path d="M0 0 C0.99 0.33 1.98 0.66 3 1 C1.02 3.97 1.02 3.97 -1 7 C-1.99 6.67 -2.98 6.34 -4 6 C-3.34 6 -2.68 6 -2 6 C-1.855625 5.195625 -1.71125 4.39125 -1.5625 3.5625 C-1 1 -1 1 0 0 Z " fill="#E31318" transform="translate(107,106)"/>
<path d="M0 0 C1.65 0 3.3 0 5 0 C5 0.66 5 1.32 5 2 C5.66 2.33 6.32 2.66 7 3 C5.68 4.32 4.36 5.64 3 7 C3.061875 6.21625 3.12375 5.4325 3.1875 4.625 C3.125625 3.75875 3.06375 2.8925 3 2 C2.01 1.34 1.02 0.68 0 0 Z " fill="#F7C7C9" transform="translate(62,101)"/>
<path d="M0 0 C0.66 0.66 1.32 1.32 2 2 C1.625 4.625 1.625 4.625 1 7 C0.01 6.67 -0.98 6.34 -2 6 C-1.125 1.125 -1.125 1.125 0 0 Z " fill="#E41A22" transform="translate(18,101)"/>
<path d="M0 0 C0.625 1.875 0.625 1.875 1 4 C0.34 4.66 -0.32 5.32 -1 6 C-3.125 5.625 -3.125 5.625 -5 5 C-4.34 4.67 -3.68 4.34 -3 4 C-2.67 3.01 -2.34 2.02 -2 1 C-1.34 0.67 -0.68 0.34 0 0 Z " fill="#E1050C" transform="translate(82,106)"/>
<path d="M0 0 C0.99 0.66 1.98 1.32 3 2 C2.67 2.99 2.34 3.98 2 5 C1.34 5 0.68 5 0 5 C0 5.66 0 6.32 0 7 C-0.99 6.67 -1.98 6.34 -3 6 C-2.01 4.02 -1.02 2.04 0 0 Z " fill="#E41F27" transform="translate(165,106)"/>
</svg>
