<?xml version="1.0" encoding="UTF-8"?>
<svg version="1.1" xmlns="http://www.w3.org/2000/svg" width="225" height="225">
<path d="M0 0 C74.25 0 148.5 0 225 0 C225 74.25 225 148.5 225 225 C150.75 225 76.5 225 0 225 C0 150.75 0 76.5 0 0 Z " fill="#74023B" transform="translate(0,0)"/>
<path d="M0 0 C74.25 0 148.5 0 225 0 C225 74.25 225 148.5 225 225 C150.75 225 76.5 225 0 225 C0 150.75 0 76.5 0 0 Z M36.63623047 46.49951172 C21.28205823 64.16895083 12.56724709 87.30624293 12.6875 110.625 C12.69313965 111.77145996 12.6987793 112.91791992 12.70458984 114.09912109 C13.10417785 142.16127667 24.03329282 165.59755075 43.43359375 185.49609375 C64.12562391 205.10085796 89.70576839 212.8671801 117.703125 212.28125 C145.15286341 211.30148539 169.04352585 198.93142159 187.75 179.1875 C207.79168434 155.90972718 213.61949471 128.07898204 212 98 C209.42026429 73.18002909 194.33008565 49.69449197 175.40966797 34.01318359 C133.20676233 0.63534291 72.33419822 7.24836278 36.63623047 46.49951172 Z " fill="#FEFDFE" transform="translate(0,0)"/>
<path d="M0 0 C0 0.66 0 1.32 0 2 C-1.15371094 2.54785156 -2.30742187 3.09570312 -3.49609375 3.66015625 C-16.79795437 10.08733378 -29.36323506 17.48051457 -41.96875 25.16796875 C-46.63128757 27.98591993 -51.34177711 30.71846835 -56.0625 33.4375 C-56.87211182 33.90406006 -57.68172363 34.37062012 -58.51586914 34.85131836 C-60.34292472 35.90259793 -62.1712914 36.95159852 -64 38 C-62.63294922 37.29037109 -62.63294922 37.29037109 -61.23828125 36.56640625 C-40.45440937 25.89981165 -17.2589451 14.44099049 6 11 C6 11.99 6 12.98 6 14 C5.20118408 14.31114746 4.40236816 14.62229492 3.5793457 14.94287109 C-12.91608391 21.39148248 -29.13767241 28.08634429 -45 36 C-42.03 36.66 -39.06 37.32 -36 38 C-40.10399184 40.73599456 -44.06300447 40.32503263 -48.84375 40.30273438 C-54.64591233 40.47178234 -57.53334491 42.32260988 -62 46 C-61.13721436 46.0501123 -60.27442871 46.10022461 -59.38549805 46.15185547 C-56.18139644 46.34224943 -52.97792496 46.5407054 -49.7746582 46.74462891 C-48.38878865 46.83119509 -47.0027149 46.91455496 -45.61645508 46.99462891 C-43.62270049 47.11035382 -41.62968568 47.23860899 -39.63671875 47.3671875 C-38.43748779 47.44050293 -37.23825684 47.51381836 -36.00268555 47.58935547 C-33 48 -33 48 -30 50 C-31.58941406 50.19916016 -31.58941406 50.19916016 -33.2109375 50.40234375 C-34.59898279 50.58053875 -35.98700231 50.7589346 -37.375 50.9375 C-38.42300781 51.06801758 -38.42300781 51.06801758 -39.4921875 51.20117188 C-43.36783575 51.66318128 -43.36783575 51.66318128 -47 53 C-48.53668865 53.22467831 -50.07968054 53.40796805 -51.625 53.5625 C-52.44226563 53.64628906 -53.25953125 53.73007813 -54.1015625 53.81640625 C-54.72804688 53.87699219 -55.35453125 53.93757813 -56 54 C-55.34 54.99 -54.68 55.98 -54 57 C-51.19620936 57.60417117 -51.19620936 57.60417117 -47.8984375 57.73046875 C-46.08085937 57.85131836 -46.08085937 57.85131836 -44.2265625 57.97460938 C-42.32003906 58.07999023 -42.32003906 58.07999023 -40.375 58.1875 C-39.09625 58.26935547 -37.8175 58.35121094 -36.5 58.43554688 C-33.33389778 58.63638172 -30.16756167 58.82395412 -27 59 C-27.495 59.99 -27.495 59.99 -28 61 C-31.08984375 61.37890625 -31.08984375 61.37890625 -34.9375 61.5625 C-39.63351942 61.62577741 -39.63351942 61.62577741 -44 63 C-38.03331172 64.83402304 -32.06921567 66.53889252 -26 68 C-26 69.65 -26 71.3 -26 73 C-32.67148213 74.09518174 -39.30851192 74.34611007 -46.05664062 74.60546875 C-46.92095703 74.64285156 -47.78527344 74.68023437 -48.67578125 74.71875 C-49.45864502 74.74904297 -50.24150879 74.77933594 -51.0480957 74.81054688 C-53.07859475 74.88983314 -53.07859475 74.88983314 -55 76 C-41.14 76.99 -41.14 76.99 -27 78 C-27 79.98 -27 81.96 -27 84 C-27.72179443 84.05534912 -28.44358887 84.11069824 -29.18725586 84.16772461 C-32.43772168 84.4196154 -35.68759621 84.67846301 -38.9375 84.9375 C-40.07380859 85.02451172 -41.21011719 85.11152344 -42.38085938 85.20117188 C-43.46044922 85.28818359 -44.54003906 85.37519531 -45.65234375 85.46484375 C-46.65257568 85.543396 -47.65280762 85.62194824 -48.68334961 85.70288086 C-50.95853115 85.75472794 -50.95853115 85.75472794 -52 87 C-44.41 87.66 -36.82 88.32 -29 89 C-29.66 90.98 -30.32 92.96 -31 95 C-38.26 95.66 -45.52 96.32 -53 97 C-49.28720531 98.23759823 -45.68693654 98.35608897 -41.8125 98.5625 C-40.68811523 98.62727539 -40.68811523 98.62727539 -39.54101562 98.69335938 C-37.69421625 98.79922685 -35.84713166 98.9000976 -34 99 C-35.76165803 103.75647668 -35.76165803 103.75647668 -38 106 C-41.95621747 107.2257961 -45.87926832 107.68252224 -50 108 C-47.36 108.33 -44.72 108.66 -42 109 C-45.16952847 112.26008643 -48.39937989 115.22237877 -52 118 C-55.875 116.125 -55.875 116.125 -57 115 C-58.83074894 114.91143323 -60.66493598 114.89311343 -62.49780273 114.90234375 C-63.67249619 114.90564697 -64.84718964 114.9089502 -66.05747986 114.91235352 C-67.33659744 114.92065186 -68.61571503 114.9289502 -69.93359375 114.9375 C-71.92466989 114.94328441 -73.91574607 114.94906338 -75.90682316 114.95451355 C-80.12817169 114.96770268 -84.34948284 114.98984427 -88.57080078 115.01037598 C-92.04085504 115.02691523 -95.51089101 115.04153182 -98.98097229 115.05102539 C-101.58852365 115.05859521 -104.19606631 115.07070334 -106.80357361 115.08764648 C-107.98141922 115.09094971 -109.15926483 115.09425293 -110.37280273 115.09765625 C-111.41347397 115.10289307 -112.4541452 115.10812988 -113.52635193 115.11352539 C-116 115 -116 115 -118 114 C-117.505 112.515 -117.505 112.515 -117 111 C-89.775 110.505 -89.775 110.505 -62 110 C-65.24499506 104.86725157 -65.24499506 104.86725157 -68.70069885 104.41218567 C-69.73089645 104.42932114 -70.76109406 104.4464566 -71.82250977 104.46411133 C-72.99374893 104.47094437 -74.1649881 104.4777774 -75.37171936 104.4848175 C-76.63221603 104.51689804 -77.89271271 104.54897858 -79.19140625 104.58203125 C-81.17246546 104.60008529 -83.15352482 104.61812988 -85.1345892 104.63560772 C-87.90670224 104.66626487 -90.67819787 104.71982165 -93.44995117 104.77325439 C-98.30453321 104.86343977 -103.1594943 104.92433678 -108.01463318 104.97502136 C-110.59899209 105.00431501 -113.18325045 105.04511315 -115.76722717 105.0983429 C-117.51935768 105.12277718 -117.51935768 105.12277718 -119.30688477 105.14770508 C-120.33628677 105.16722733 -121.36568878 105.18674957 -122.42628479 105.2068634 C-125 105 -125 105 -128 103 C-128 102.34 -128 101.68 -128 101 C-124.74785231 99.07077301 -122.34722668 98.75538679 -118.58886719 98.77294922 C-117.50804871 98.77310028 -116.42723022 98.77325134 -115.31365967 98.77340698 C-114.15312073 98.78372955 -112.99258179 98.79405212 -111.796875 98.8046875 C-110.00748505 98.80893234 -110.00748505 98.80893234 -108.1819458 98.81326294 C-104.37119524 98.82445947 -100.56067955 98.84956347 -96.75 98.875 C-94.16667006 98.88503046 -91.58333644 98.8941562 -89 98.90234375 C-82.66658651 98.92439711 -76.33331003 98.95786965 -70 99 C-71.12921613 96.91242274 -71.12921613 96.91242274 -73 95 C-75.56872994 94.44717799 -75.56872994 94.44717799 -78.50952148 94.609375 C-80.20158974 94.62919434 -80.20158974 94.62919434 -81.92784119 94.64941406 C-83.14661453 94.68260742 -84.36538788 94.71580078 -85.62109375 94.75 C-86.87253677 94.76514648 -88.1239798 94.78029297 -89.41334534 94.79589844 C-94.10190662 94.85317959 -98.78926798 94.94611294 -103.47717285 95.04150391 C-108.06667691 95.13300186 -112.65598398 95.19448735 -117.24609375 95.25 C-118.46284286 95.28319336 -119.67959198 95.31638672 -120.93321228 95.35058594 C-122.63000877 95.37040527 -122.63000877 95.37040527 -124.36108398 95.390625 C-125.85308571 95.4220459 -125.85308571 95.4220459 -127.37522888 95.45410156 C-130.70410489 94.87818552 -131.87418334 93.54905056 -134 91 C-129.23470369 87.25798837 -124.4874612 87.45596194 -118.6875 87.3125 C-117.75615234 87.27833984 -116.82480469 87.24417969 -115.86523438 87.20898438 C-113.57694328 87.12684059 -111.28901896 87.05758338 -109 87 C-109.99 87 -110.98 87 -112 87 C-113.33981486 86.6937566 -114.67511887 86.36548445 -116 86 C-116 85.34 -116 84.68 -116 84 C-117.26457031 84.02320313 -118.52914062 84.04640625 -119.83203125 84.0703125 C-121.4921816 84.08907126 -123.15233833 84.10727135 -124.8125 84.125 C-125.64587891 84.14175781 -126.47925781 84.15851563 -127.33789062 84.17578125 C-128.14033203 84.18222656 -128.94277344 84.18867188 -129.76953125 84.1953125 C-130.87711792 84.21102295 -130.87711792 84.21102295 -132.00708008 84.22705078 C-134 84 -134 84 -137 82 C-136.67 81.01 -136.34 80.02 -136 79 C-133.48322887 77.74161443 -131.58706712 77.79181027 -128.7734375 77.68359375 C-127.7421875 77.64169922 -126.7109375 77.59980469 -125.6484375 77.55664062 C-124.56820312 77.51732422 -123.48796875 77.47800781 -122.375 77.4375 C-121.28703125 77.39431641 -120.1990625 77.35113281 -119.078125 77.30664062 C-116.3855483 77.2003547 -113.69287747 77.09831943 -111 77 C-110.67 76.34 -110.34 75.68 -110 75 C-110.70608398 74.98018066 -111.41216797 74.96036133 -112.13964844 74.93994141 C-115.34346994 74.84459585 -118.54664801 74.73495487 -121.75 74.625 C-122.86117187 74.5940625 -123.97234375 74.563125 -125.1171875 74.53125 C-126.72207031 74.47324219 -126.72207031 74.47324219 -128.359375 74.4140625 C-129.34389648 74.3826416 -130.32841797 74.3512207 -131.34277344 74.31884766 C-134.00852201 73.99897742 -135.70616405 73.35631379 -138 72 C-138 71.01 -138 70.02 -138 69 C-134.35170023 66.68941015 -130.79931605 66.65718401 -126.609375 66.5859375 C-125.90476135 66.56657135 -125.20014771 66.5472052 -124.47418213 66.5272522 C-122.23290961 66.46767265 -119.99158511 66.42115877 -117.75 66.375 C-116.22654062 66.33680021 -114.70310238 66.29774731 -113.1796875 66.2578125 C-109.45331894 66.16198982 -105.72679165 66.07787893 -102 66 C-101.67 65.34 -101.34 64.68 -101 64 C-101.98395752 63.98018066 -102.96791504 63.96036133 -103.98168945 63.93994141 C-107.63282839 63.86386013 -111.28357009 63.775147 -114.93432617 63.68261719 C-116.51432451 63.64433779 -118.09440969 63.60948303 -119.67456055 63.578125 C-121.94611645 63.53245124 -124.21707509 63.47446216 -126.48828125 63.4140625 C-127.19463211 63.40251129 -127.90098297 63.39096008 -128.6287384 63.37905884 C-132.27741393 63.26928952 -133.88213546 63.07857636 -137 61 C-136.34 59.68 -135.68 58.36 -135 57 C-133.74340576 56.98541748 -132.48681152 56.97083496 -131.19213867 56.95581055 C-126.53462108 56.89788396 -121.87758984 56.82065089 -117.22045898 56.73754883 C-115.20393765 56.7042729 -113.18732258 56.67624932 -111.1706543 56.65356445 C-108.273519 56.62006744 -105.37724482 56.56775456 -102.48046875 56.51171875 C-101.57725388 56.50532883 -100.674039 56.4989389 -99.74345398 56.49235535 C-98.4824865 56.46266411 -98.4824865 56.46266411 -97.19604492 56.43237305 C-96.08684944 56.41571846 -96.08684944 56.41571846 -94.95524597 56.39872742 C-92.54232338 56.09388024 -92.54232338 56.09388024 -90 53 C-103.86 52.67 -117.72 52.34 -132 52 C-132.66 50.68 -133.32 49.36 -134 48 C-130.87923094 46.18225296 -128.59872636 45.74641903 -125.00366211 45.72875977 C-123.51708351 45.71347984 -123.51708351 45.71347984 -122.00047302 45.69789124 C-120.93684036 45.69575119 -119.8732077 45.69361115 -118.77734375 45.69140625 C-116.52538791 45.66625738 -114.27343485 45.6408592 -112.02148438 45.61523438 C-108.47062836 45.58642568 -104.91982028 45.56240687 -101.36889648 45.54370117 C-97.94229866 45.52211742 -94.51625231 45.48269511 -91.08984375 45.44140625 C-89.49135841 45.44123253 -89.49135841 45.44123253 -87.86058044 45.4410553 C-86.87268021 45.42771652 -85.88477997 45.41437775 -84.86694336 45.40063477 C-83.99742538 45.39556412 -83.12790741 45.39049347 -82.23204041 45.38526917 C-79.56401492 44.92474527 -78.67828539 44.07005449 -77 42 C-77.60943451 41.98969254 -78.21886902 41.97938507 -78.84677124 41.96876526 C-85.17302465 41.86083047 -91.49913185 41.74622212 -97.82519531 41.62768555 C-100.18812001 41.58429484 -102.55107691 41.54262287 -104.9140625 41.50268555 C-108.30478636 41.44508307 -111.6953475 41.3813599 -115.0859375 41.31640625 C-116.14743011 41.29969376 -117.20892273 41.28298126 -118.30258179 41.26576233 C-119.28344757 41.24581711 -120.26431335 41.22587189 -121.27490234 41.20532227 C-122.14094086 41.18977798 -123.00697937 41.1742337 -123.89926147 41.15821838 C-126 41 -126 41 -128 40 C-127.34 38.68 -126.68 37.36 -126 36 C-125.27194656 35.99635437 -124.54389313 35.99270874 -123.79377747 35.98895264 C-116.92264869 35.95103963 -110.05190892 35.89414943 -103.18112659 35.81609726 C-99.64897147 35.77663716 -96.11706508 35.74444196 -92.5847168 35.72900391 C-88.52091652 35.71092159 -84.45804529 35.66096481 -80.39453125 35.609375 C-79.1297847 35.60814636 -77.86503815 35.60691772 -76.56196594 35.60565186 C-75.38111923 35.58593323 -74.20027252 35.5662146 -72.98364258 35.54589844 C-71.94661697 35.53701599 -70.90959137 35.52813354 -69.84114075 35.51898193 C-66.32606159 35.10893585 -66.32606159 35.10893585 -62 31 C-80.15 30.67 -98.3 30.34 -117 30 C-117.33 29.01 -117.66 28.02 -118 27 C-115.31475501 25.6573775 -113.37099742 25.95905718 -110.3671875 26.06103516 C-108.59263184 26.11440536 -108.59263184 26.11440536 -106.78222656 26.16885376 C-104.84814941 26.22835709 -104.84814941 26.22835709 -102.875 26.2890625 C-99.42252414 26.3657126 -95.96973222 26.42575558 -92.51696777 26.48780251 C-88.92229197 26.55578259 -85.33024694 26.64309295 -81.73730469 26.77490234 C-64.89315905 27.3752827 -51.40013486 27.30258497 -37.67858887 16.30377197 C-35.42726873 14.55515553 -33.03265042 13.22785053 -30.5078125 11.9140625 C-29.76934082 11.52331543 -29.03086914 11.13256836 -28.27001953 10.72998047 C-27.56216309 10.36533691 -26.85430664 10.00069336 -26.125 9.625 C-25.34108887 9.21781738 -24.55717773 8.81063477 -23.74951172 8.39111328 C-6.70540922 -0.36050587 -6.70540922 -0.36050587 0 0 Z " fill="#F8F5F6" transform="translate(183,52)"/>
<path d="M0 0 C0.66 0.33 1.32 0.66 2 1 C2.4140625 3.06640625 2.4140625 3.06640625 2.625 5.5625 C2.69976562 6.38878906 2.77453125 7.21507813 2.8515625 8.06640625 C2.90054688 8.70449219 2.94953125 9.34257813 3 10 C4.32 8.35 5.64 6.7 7 5 C9.25414904 9.50829807 8.4325194 15.42339786 7 20.125 C4.99699667 24.93028203 1.20467072 28.07538025 -3 31 C-3.99 31.33 -4.98 31.66 -6 32 C-2.37 32 1.26 32 5 32 C5.33 32.66 5.66 33.32 6 34 C-0.6 34 -7.2 34 -14 34 C-12.3603125 30.5659375 -12.3603125 30.5659375 -10.6875 27.0625 C-8.04665457 21.46755023 -5.7716442 15.94021879 -4 10 C-4.99 10.33 -5.98 10.66 -7 11 C-5.75023244 7.34683329 -5.32901247 6.21934164 -2 4 C-0.80767387 1.94996045 -0.80767387 1.94996045 0 0 Z " fill="#780E40" transform="translate(100,107)"/>
<path d="M0 0 C13.2 0 26.4 0 40 0 C36 5 36 5 34.03839111 5.60127258 C33.35444275 5.59016953 32.67049438 5.57906647 31.96582031 5.56762695 C31.18531311 5.5672493 30.40480591 5.56687164 29.60064697 5.56648254 C28.76821472 5.54067612 27.93578247 5.51486969 27.078125 5.48828125 C26.21813904 5.48120651 25.35815308 5.47413177 24.47210693 5.46684265 C21.7305125 5.43889611 18.990975 5.3761598 16.25 5.3125 C14.38935245 5.28741734 12.52867283 5.26460411 10.66796875 5.24414062 C6.11118894 5.18906887 1.55594296 5.10279655 -3 5 C-3 4.67 -3 4.34 -3 4 C6.9 3.505 6.9 3.505 17 3 C17 2.67 17 2.34 17 2 C11.39 1.67 5.78 1.34 0 1 C0 0.67 0 0.34 0 0 Z " fill="#8A385D" transform="translate(54,104)"/>
<path d="M0 0 C3.92861947 -0.02506235 7.85720679 -0.04302799 11.78588867 -0.05493164 C13.76547892 -0.0623244 15.74504701 -0.07504274 17.72460938 -0.08789062 C25.21191564 -0.10684583 32.55999977 0.13948622 40 1 C38 3 38 3 34.28466797 3.22705078 C32.68713948 3.22673351 31.08958973 3.21539982 29.4921875 3.1953125 C28.23125778 3.19106766 28.23125778 3.19106766 26.94485474 3.18673706 C24.25475954 3.1755243 21.5649949 3.15041803 18.875 3.125 C17.05339022 3.1149716 15.23177523 3.10584551 13.41015625 3.09765625 C8.93997642 3.07558142 4.47004429 3.04104434 0 3 C0 2.01 0 1.02 0 0 Z " fill="#ECE2E6" transform="translate(81,70)"/>
<path d="M0 0 C13.2 0 26.4 0 40 0 C40 0.66 40 1.32 40 2 C27.01671093 3.3006515 14.03225916 3.09977584 1 3 C0.67 2.01 0.34 1.02 0 0 Z " fill="#EBE0E4" transform="translate(81,172)"/>
<path d="M0 0 C0.33 0.66 0.66 1.32 1 2 C0 5 0 5 -2.14550781 6.31860352 C-3.07202148 6.75100342 -3.99853516 7.18340332 -4.953125 7.62890625 C-5.96503906 8.10650391 -6.97695312 8.58410156 -8.01953125 9.07617188 C-9.08558594 9.56666016 -10.15164062 10.05714844 -11.25 10.5625 C-12.30058594 11.05685547 -13.35117188 11.55121094 -14.43359375 12.06054688 C-18.91571546 14.15958867 -23.38981676 16.19631016 -28 18 C-24.3904487 13.78560496 -19.9441171 11.56915774 -15.125 9 C-9.91932433 6.19759711 -4.85881902 3.37461386 0 0 Z " fill="#77193B" transform="translate(146,73)"/>
<path d="M0 0 C8.25 0 16.5 0 25 0 C24.67 0.99 24.34 1.98 24 3 C17.73 3 11.46 3 5 3 C5 2.67 5 2.34 5 2 C3.35 1.67 1.7 1.34 0 1 C0 0.67 0 0.34 0 0 Z " fill="#6E012F" transform="translate(49,126)"/>
<path d="M0 0 C0.69287109 0.00451172 1.38574219 0.00902344 2.09960938 0.01367188 C3.79561068 0.02536844 5.49156703 0.04330076 7.1875 0.0625 C6.1975 0.5575 6.1975 0.5575 5.1875 1.0625 C5.1875 1.7225 5.1875 2.3825 5.1875 3.0625 C2.7497037 3.11647335 0.31310315 3.15615616 -2.125 3.1875 C-3.16043945 3.21263672 -3.16043945 3.21263672 -4.21679688 3.23828125 C-7.98385396 3.27467794 -9.59681704 3.20628864 -12.8125 1.0625 C-8.52952469 0.00630997 -4.38264354 -0.05452092 0 0 Z " fill="#6E002E" transform="translate(137.8125,125.9375)"/>
<path d="M0 0 C5.94 0.99 5.94 0.99 12 2 C8.68629 4.20914 7.6553979 4.22481553 3.8125 4.125 C2.91144531 4.10695313 2.01039063 4.08890625 1.08203125 4.0703125 C0.39496094 4.04710938 -0.29210937 4.02390625 -1 4 C-0.67 2.68 -0.34 1.36 0 0 Z " fill="#D9C4CC" transform="translate(135,88)"/>
<path d="M0 0 C-0.33 0.99 -0.66 1.98 -1 3 C-3.97 2.67 -6.94 2.34 -10 2 C-10 1.67 -10 1.34 -10 1 C-6.59437148 0.22157062 -3.49234244 -0.09978121 0 0 Z " fill="#853553" transform="translate(135,126)"/>
</svg>
